<mxfile host="Electron" agent="Mozilla/5.0 (X11; Linux x86_64) AppleWebKit/537.36 (KHTML, like Gecko) draw.io/24.7.8 Chrome/128.0.6613.36 Electron/32.0.1 Safari/537.36" version="24.7.8">
  <diagram name="Страница — 1" id="Zvr2eW7H0rXLNG6UFAMz">
    <mxGraphModel dx="1400" dy="580" grid="1" gridSize="10" guides="1" tooltips="1" connect="1" arrows="1" fold="1" page="1" pageScale="1" pageWidth="827" pageHeight="1169" math="0" shadow="0">
      <root>
        <mxCell id="0" />
        <mxCell id="1" parent="0" />
        <mxCell id="Tj8ivmsSisfJJ2ebBxgm-21" value="&lt;div style=&quot;color: rgb(204, 204, 204); font-size: 18px; line-height: 24px; white-space: pre;&quot;&gt;&lt;div style=&quot;&quot;&gt;&lt;span style=&quot;color: rgb(220, 220, 170);&quot;&gt;&lt;b&gt;standard_planner&lt;/b&gt;&lt;/span&gt;&lt;span style=&quot;font-weight: normal; color: rgb(212, 212, 212);&quot;&gt;()&lt;/span&gt;&lt;/div&gt;&lt;div style=&quot;font-weight: normal;&quot;&gt;&lt;span style=&quot;color: #d4d4d4;&quot;&gt;{&lt;/span&gt;&lt;/div&gt;&lt;div style=&quot;font-weight: normal;&quot;&gt;&lt;span style=&quot;color: #6a9955;&quot;&gt;    /* Инициализация планировщика */&lt;/span&gt;&lt;/div&gt;&lt;div style=&quot;&quot;&gt;&lt;span style=&quot;font-weight: normal; color: rgb(212, 212, 212);&quot;&gt;    &lt;/span&gt;&lt;span style=&quot;color: rgb(220, 220, 170);&quot;&gt;&lt;b&gt;subquery_planner&lt;/b&gt;&lt;/span&gt;&lt;span style=&quot;font-weight: normal; color: rgb(212, 212, 212);&quot;&gt;()&lt;/span&gt;&lt;/div&gt;&lt;div style=&quot;font-weight: normal;&quot;&gt;&lt;span style=&quot;color: #d4d4d4;&quot;&gt;    {&lt;/span&gt;&lt;/div&gt;&lt;div style=&quot;font-weight: normal;&quot;&gt;&lt;span style=&quot;color: #6a9955;&quot;&gt;        /* Предобработка дерева запроса */&lt;/span&gt;&lt;/div&gt;&lt;div style=&quot;&quot;&gt;&lt;span style=&quot;font-weight: normal; color: rgb(212, 212, 212);&quot;&gt;        &lt;/span&gt;&lt;span style=&quot;color: rgb(220, 220, 170);&quot;&gt;&lt;b&gt;grouping_planner&lt;/b&gt;&lt;/span&gt;&lt;span style=&quot;font-weight: normal; color: rgb(212, 212, 212);&quot;&gt;()&lt;/span&gt;&lt;/div&gt;&lt;div style=&quot;font-weight: normal;&quot;&gt;&lt;span style=&quot;color: #d4d4d4;&quot;&gt;        {&lt;/span&gt;&lt;/div&gt;&lt;div style=&quot;font-weight: normal;&quot;&gt;&lt;span style=&quot;color: #6a9955;&quot;&gt;            /* Настройка операций обработки данных */&lt;/span&gt;&lt;/div&gt;&lt;div style=&quot;&quot;&gt;&lt;span style=&quot;font-weight: normal; color: rgb(212, 212, 212);&quot;&gt;            &lt;/span&gt;&lt;span style=&quot;color: rgb(220, 220, 170);&quot;&gt;&lt;b&gt;query_planner&lt;/b&gt;&lt;/span&gt;&lt;span style=&quot;font-weight: normal; color: rgb(212, 212, 212);&quot;&gt;()&lt;/span&gt;&lt;/div&gt;&lt;div style=&quot;font-weight: normal;&quot;&gt;&lt;span style=&quot;color: #d4d4d4;&quot;&gt;            {&lt;/span&gt;&lt;/div&gt;&lt;div style=&quot;font-weight: normal;&quot;&gt;&lt;span style=&quot;color: #6a9955;&quot;&gt;                /* Инициализация планировщика */&lt;/span&gt;&lt;/div&gt;&lt;div style=&quot;font-weight: normal;&quot;&gt;&lt;span style=&quot;color: #6a9955;&quot;&gt;                /* Оптимизации */&lt;/span&gt;&lt;/div&gt;&lt;div style=&quot;font-weight: normal;&quot;&gt;&lt;span style=&quot;color: #6a9955;&quot;&gt;                /* Создание путей обхода таблиц */&lt;/span&gt;&lt;/div&gt;&lt;div style=&quot;&quot;&gt;&lt;span style=&quot;font-weight: normal; color: rgb(106, 153, 85);&quot;&gt;                &lt;/span&gt;&lt;span style=&quot;color: rgb(220, 220, 170);&quot;&gt;&lt;b&gt;make_one_rel&lt;/b&gt;&lt;/span&gt;&lt;span style=&quot;font-weight: normal; color: rgb(212, 212, 212);&quot;&gt;()&lt;/span&gt;&lt;/div&gt;&lt;div style=&quot;font-weight: normal;&quot;&gt;&lt;span style=&quot;color: rgb(212, 212, 212);&quot;&gt;                {&lt;/span&gt;&lt;/div&gt;&lt;div style=&quot;font-weight: normal;&quot;&gt;&lt;span style=&quot;color: rgb(212, 212, 212);&quot;&gt;                &lt;/span&gt;&lt;span style=&quot;color: rgb(106, 153, 85);&quot;&gt;    &lt;/span&gt;&lt;span style=&quot;color: rgb(106, 153, 85);&quot;&gt;/* Нахождение стратегии JOIN&#39;ов */&lt;/span&gt;&lt;/div&gt;&lt;div style=&quot;&quot;&gt;&lt;span style=&quot;font-weight: normal; color: rgb(106, 153, 85);&quot;&gt;                    &lt;/span&gt;&lt;span style=&quot;color: rgb(220, 220, 170);&quot;&gt;&lt;b&gt;standard_join_search&lt;/b&gt;&lt;/span&gt;&lt;span style=&quot;font-weight: normal; color: rgb(212, 212, 212);&quot;&gt;()&lt;/span&gt;&lt;/div&gt;&lt;div style=&quot;font-weight: normal;&quot;&gt;&lt;span style=&quot;color: rgb(212, 212, 212);&quot;&gt;                }&lt;/span&gt;&lt;/div&gt;&lt;div style=&quot;font-weight: normal;&quot;&gt;&lt;span style=&quot;color: #d4d4d4;&quot;&gt;            }&lt;/span&gt;&lt;/div&gt;&lt;div style=&quot;font-weight: normal;&quot;&gt;&lt;span style=&quot;color: #6a9955;&quot;&gt;            /* &lt;/span&gt;&lt;/div&gt;&lt;div style=&quot;font-weight: normal;&quot;&gt;&lt;span style=&quot;color: #6a9955;&quot;&gt;             * Добавление узлов обработки данных: &lt;/span&gt;&lt;/div&gt;&lt;div style=&quot;font-weight: normal;&quot;&gt;&lt;span style=&quot;color: #6a9955;&quot;&gt;             * сортировка, группировка, LIMIT... &lt;/span&gt;&lt;/div&gt;&lt;div style=&quot;font-weight: normal;&quot;&gt;&lt;span style=&quot;color: #6a9955;&quot;&gt;             */&lt;/span&gt;&lt;/div&gt;&lt;div style=&quot;font-weight: normal;&quot;&gt;&lt;span style=&quot;color: #d4d4d4;&quot;&gt;        }&lt;/span&gt;&lt;/div&gt;&lt;div style=&quot;font-weight: normal;&quot;&gt;&lt;span style=&quot;color: #6a9955;&quot;&gt;        /* Выбор самого дешевого пути */&lt;/span&gt;&lt;/div&gt;&lt;div style=&quot;font-weight: normal;&quot;&gt;&lt;span style=&quot;color: #d4d4d4;&quot;&gt;    }&lt;/span&gt;&lt;/div&gt;&lt;div style=&quot;font-weight: normal;&quot;&gt;&lt;span style=&quot;color: #6a9955;&quot;&gt;    /* Создание плана выполнения */&lt;/span&gt;&lt;/div&gt;&lt;div style=&quot;font-weight: normal;&quot;&gt;&lt;span style=&quot;color: #d4d4d4;&quot;&gt;}&lt;/span&gt;&lt;/div&gt;&lt;/div&gt;" style="text;whiteSpace=wrap;html=1;rounded=1;fontFamily=Courier New;fillColor=#1F1F1F;arcSize=1;labelBackgroundColor=none;" vertex="1" parent="1">
          <mxGeometry x="10" y="340" width="660" height="710" as="geometry" />
        </mxCell>
      </root>
    </mxGraphModel>
  </diagram>
</mxfile>
